<svg width="58" height="58" viewBox="0 0 58 58" fill="none" xmlns="http://www.w3.org/2000/svg">
<path fill-rule="evenodd" clip-rule="evenodd" d="M29 56C43.9117 56 56 43.9117 56 29C56 14.0883 43.9117 2 29 2C14.0883 2 2 14.0883 2 29C2 43.9117 14.0883 56 29 56ZM29 58C45.0163 58 58 45.0163 58 29C58 12.9837 45.0163 0 29 0C12.9837 0 0 12.9837 0 29C0 45.0163 12.9837 58 29 58Z" fill="white"/>
<path fill-rule="evenodd" clip-rule="evenodd" d="M24.1339 11.3662C24.4972 11.7295 24.6012 12.278 24.3961 12.749C23.5885 14.6038 23.25 16.8407 23.25 19.125C23.25 27.7542 30.2458 34.75 38.875 34.75C41.1593 34.75 43.3962 34.4115 45.251 33.6039C45.722 33.3988 46.2705 33.5028 46.6338 33.8661C46.9971 34.2293 47.1011 34.7779 46.8961 35.2489C44.093 41.6883 37.5372 46 30.125 46C20.1151 46 12 37.8849 12 27.875C12 20.4628 16.3117 13.907 22.7511 11.1039C23.2221 10.8989 23.7707 11.0029 24.1339 11.3662ZM21.1488 14.8559C17.0996 17.6971 14.5 22.5069 14.5 27.875C14.5 36.5042 21.4958 43.5 30.125 43.5C35.4931 43.5 40.3029 40.9004 43.1441 36.8512C41.7408 37.1325 40.291 37.25 38.875 37.25C28.8651 37.25 20.75 29.1349 20.75 19.125C20.75 17.709 20.8675 16.2592 21.1488 14.8559Z" fill="white"/>
</svg>
