<svg width="58" height="58" viewBox="0 0 58 58" fill="none" xmlns="http://www.w3.org/2000/svg">
<path fill-rule="evenodd" clip-rule="evenodd" d="M29 56C43.9117 56 56 43.9117 56 29C56 14.0883 43.9117 2 29 2C14.0883 2 2 14.0883 2 29C2 43.9117 14.0883 56 29 56ZM29 58C45.0163 58 58 45.0163 58 29C58 12.9837 45.0163 0 29 0C12.9837 0 0 12.9837 0 29C0 45.0163 12.9837 58 29 58Z" fill="#111111"/>
<path fill-rule="evenodd" clip-rule="evenodd" d="M28.5 11C29.1904 11 29.75 11.5596 29.75 12.25V16C29.75 16.6904 29.1904 17.25 28.5 17.25C27.8096 17.25 27.25 16.6904 27.25 16V12.25C27.25 11.5596 27.8096 11 28.5 11ZM16.1255 16.1255C16.6136 15.6373 17.4051 15.6373 17.8933 16.1255L20.5448 18.7771C21.033 19.2652 21.033 20.0567 20.5448 20.5448C20.0567 21.033 19.2652 21.033 18.7771 20.5448L16.1255 17.8933C15.6373 17.4051 15.6373 16.6136 16.1255 16.1255ZM40.8745 16.1255C41.3627 16.6136 41.3627 17.4051 40.8745 17.8933L38.2229 20.5448C37.7348 21.033 36.9433 21.033 36.4552 20.5448C35.967 20.0567 35.967 19.2652 36.4552 18.7771L39.1067 16.1255C39.5949 15.6373 40.3863 15.6373 40.8745 16.1255ZM11 28.5C11 27.8096 11.5596 27.25 12.25 27.25H16C16.6904 27.25 17.25 27.8096 17.25 28.5C17.25 29.1904 16.6904 29.75 16 29.75H12.25C11.5596 29.75 11 29.1904 11 28.5ZM39.75 28.5C39.75 27.8096 40.3096 27.25 41 27.25H44.75C45.4404 27.25 46 27.8096 46 28.5C46 29.1904 45.4404 29.75 44.75 29.75H41C40.3096 29.75 39.75 29.1904 39.75 28.5ZM20.5448 36.4552C21.033 36.9433 21.033 37.7348 20.5448 38.2229L17.8933 40.8745C17.4051 41.3627 16.6136 41.3627 16.1255 40.8745C15.6373 40.3863 15.6373 39.5949 16.1255 39.1067L18.7771 36.4552C19.2652 35.967 20.0567 35.967 20.5448 36.4552ZM36.4552 36.4552C36.9433 35.967 37.7348 35.967 38.2229 36.4552L40.8745 39.1067C41.3627 39.5949 41.3627 40.3864 40.8745 40.8745C40.3864 41.3627 39.5949 41.3627 39.1067 40.8745L36.4552 38.2229C35.967 37.7348 35.967 36.9433 36.4552 36.4552ZM28.5 39.75C29.1904 39.75 29.75 40.3096 29.75 41V44.75C29.75 45.4404 29.1904 46 28.5 46C27.8096 46 27.25 45.4404 27.25 44.75V41C27.25 40.3096 27.8096 39.75 28.5 39.75Z" fill="#111111"/>
<path fill-rule="evenodd" clip-rule="evenodd" d="M28.5 23.5C25.7386 23.5 23.5 25.7386 23.5 28.5C23.5 31.2614 25.7386 33.5 28.5 33.5C31.2614 33.5 33.5 31.2614 33.5 28.5C33.5 25.7386 31.2614 23.5 28.5 23.5ZM21 28.5C21 24.3579 24.3579 21 28.5 21C32.6421 21 36 24.3579 36 28.5C36 32.6421 32.6421 36 28.5 36C24.3579 36 21 32.6421 21 28.5Z" fill="#111111"/>
</svg>
